<?xml version="1.0" encoding="utf-8"?>
<!-- Generator: Adobe Illustrator 26.5.0, SVG Export Plug-In . SVG Version: 6.00 Build 0)  -->
<svg version="1.1" id="Camada_1" xmlns="http://www.w3.org/2000/svg" xmlns:xlink="http://www.w3.org/1999/xlink" x="0px" y="0px"
	 viewBox="0 0 82 37" style="enable-background:new 0 0 82 37;" xml:space="preserve">
<style type="text/css">
	.st0{fill-rule:evenodd;clip-rule:evenodd;fill:#FFFFFF;}
	.st1{fill:#FFFFFF;}
</style>
<path class="st0" d="M12.2,2.9c1,0,1.7,0.8,1.7,1.7v5.8c0,1-0.8,1.7-1.7,1.7c-1,0-1.7-0.8-1.7-1.7V4.6C10.5,3.7,11.3,2.9,12.2,2.9z"
	/>
<path class="st0" d="M12.2,15c1,0,1.7,0.8,1.7,1.7v15.6c0,1-0.8,1.7-1.7,1.7c-1,0-1.7-0.8-1.7-1.7V16.8C10.5,15.8,11.3,15,12.2,15z"
	/>
<path class="st0" d="M7,2.9c1,0,1.7,0.8,1.7,1.7v6.9c0,0.9,0.4,1.8,1,2.5c0.7,0.7,1.5,1,2.5,1c0.9,0,1.8-0.4,2.5-1
	c0.7-0.7,1-1.5,1-2.5V4.6c0-1,0.8-1.7,1.7-1.7c1,0,1.7,0.8,1.7,1.7v6.9c0,1.8-0.7,3.6-2,4.9c-1.3,1.3-3.1,2-4.9,2s-3.6-0.7-4.9-2
	c-1.3-1.3-2-3.1-2-4.9V4.6C5.2,3.7,6,2.9,7,2.9z"/>
<path class="st0" d="M30.7,3.2c0.5,0.3,0.7,0.9,0.7,1.4v27.7c0,1-0.8,1.7-1.7,1.7c-1,0-1.7-0.8-1.7-1.7v-7.5h-6.4
	c-0.5,0-1-0.2-1.3-0.6c-0.3-0.4-0.5-0.9-0.4-1.3l1.7,0.2c-1.7-0.2-1.7-0.2-1.7-0.2l0,0l0,0l0,0c0,0,0-0.1,0-0.1c0-0.1,0-0.3,0.1-0.5
	c0.1-0.5,0.2-1.1,0.3-1.9c0.3-1.6,0.7-3.8,1.3-6c0.6-2.2,1.5-4.6,2.7-6.6c1.1-2,2.7-3.8,4.9-4.6C29.6,2.8,30.2,2.9,30.7,3.2z
	 M23.6,21.4H28V8.3c-0.2,0.3-0.5,0.7-0.7,1.1c-1,1.7-1.7,3.8-2.3,5.9c-0.6,2.1-1,4.1-1.3,5.6C23.6,21,23.6,21.2,23.6,21.4z"/>
<path class="st1" d="M45.9,3c0.5,0,1,0.1,1.5,0.2c0.5,0.1,0.9,0.3,1.2,0.6c0.3,0.3,0.6,0.6,0.8,1c0.2,0.4,0.3,0.9,0.3,1.4v5.6
	c0,0.5,0,0.9-0.1,1.2c-0.1,0.4-0.2,0.7-0.4,0.9c-0.2,0.3-0.3,0.5-0.5,0.7c-0.2,0.2-0.4,0.3-0.6,0.4c-0.5,0.3-1.1,0.4-1.7,0.5h-2.9
	c-0.3,0-0.6-0.1-0.8-0.2c-0.2-0.1-0.3-0.3-0.4-0.5c-0.1-0.2-0.1-0.4-0.1-0.7c0-0.2,0-0.5,0-0.8V5c0-0.3,0-0.5,0-0.8
	c0-0.2,0.1-0.5,0.1-0.7c0.1-0.2,0.2-0.3,0.4-0.5C42.7,3.1,43,3,43.3,3H45.9z M44.7,5.1v8.3h1.1c0.3,0,0.5-0.1,0.7-0.2
	c0.1,0,0.2-0.1,0.2-0.2c0.1-0.1,0.2-0.2,0.2-0.3c0.1-0.1,0.1-0.2,0.1-0.4c0-0.1,0.1-0.3,0.1-0.5V6.7c0-0.2,0-0.4-0.1-0.5
	C47.1,6,47,5.9,47,5.8c-0.1-0.1-0.1-0.2-0.2-0.3c-0.1-0.1-0.2-0.1-0.2-0.2c-0.2-0.1-0.4-0.2-0.7-0.2H44.7z"/>
<path class="st1" d="M58.5,13.6c0,0.3,0,0.5,0,0.7c0,0.2-0.1,0.5-0.2,0.6c-0.1,0.2-0.2,0.3-0.4,0.5c-0.2,0.1-0.4,0.2-0.7,0.2
	c-0.3,0-0.6-0.1-0.8-0.2c-0.2-0.1-0.3-0.2-0.4-0.4c-0.1-0.2-0.1-0.3-0.2-0.5c0-0.2,0-0.3,0-0.4c-0.1,0.2-0.1,0.4-0.2,0.5
	c-0.1,0.2-0.2,0.3-0.4,0.5c-0.2,0.1-0.3,0.3-0.6,0.4c-0.2,0.1-0.5,0.1-0.7,0.1c-0.3,0-0.6-0.1-1-0.2c-0.3-0.1-0.6-0.3-0.9-0.5
	c-0.3-0.3-0.5-0.6-0.6-1c-0.2-0.4-0.2-0.9-0.2-1.5V9.8c0-0.6,0.1-1.1,0.2-1.5c0.2-0.4,0.4-0.7,0.6-1c0.3-0.3,0.5-0.4,0.9-0.5
	c0.3-0.1,0.6-0.2,1-0.2c0.3,0,0.5,0,0.7,0.1c0.2,0.1,0.4,0.2,0.6,0.4c0.2,0.1,0.3,0.3,0.4,0.5c0.1,0.2,0.2,0.4,0.2,0.5
	c0-0.3,0-0.5,0.1-0.7C56,7.2,56.1,7,56.3,6.9c0.1-0.1,0.3-0.2,0.4-0.2c0.2,0,0.3-0.1,0.5-0.1c0.3,0,0.5,0.1,0.7,0.2
	c0.2,0.1,0.3,0.3,0.4,0.5c0.1,0.2,0.2,0.4,0.2,0.7c0,0.2,0,0.5,0,0.8V13.6z M53.9,12.2c0,0.2,0,0.3,0,0.5c0,0.2,0,0.3,0.1,0.4
	c0.1,0.1,0.1,0.2,0.2,0.3c0.1,0.1,0.2,0.1,0.4,0.1c0.2,0,0.4-0.1,0.6-0.2c0.1-0.1,0.3-0.3,0.3-0.5c0.1-0.2,0.1-0.5,0.2-0.8
	c0-0.3,0.1-0.7,0.1-1.2c0-0.2,0-0.4-0.1-0.6c0-0.2-0.1-0.5-0.2-0.7c-0.1-0.2-0.2-0.4-0.3-0.5c-0.1-0.1-0.3-0.2-0.6-0.2
	c-0.2,0-0.3,0-0.4,0.1C54.2,8.9,54.1,9,54,9.1c-0.1,0.1-0.1,0.3-0.1,0.4c0,0.1,0,0.3,0,0.5V12.2z"/>
<path class="st1" d="M60.8,8.6c0-0.3,0-0.5,0-0.7c0-0.2,0.1-0.5,0.2-0.6c0.1-0.2,0.2-0.3,0.4-0.5c0.2-0.1,0.4-0.2,0.7-0.2
	c0.3,0,0.5,0.1,0.7,0.2C63,6.9,63.2,7,63.3,7.2c0.1,0.2,0.2,0.4,0.2,0.6c0,0.2,0,0.5,0,0.7v5c0,0.3,0,0.5,0,0.7
	c0,0.2-0.1,0.5-0.2,0.6c-0.1,0.2-0.2,0.3-0.4,0.4c-0.2,0.1-0.4,0.2-0.7,0.2c-0.3,0-0.5-0.1-0.7-0.2c-0.2-0.1-0.3-0.3-0.4-0.4
	c-0.1-0.2-0.2-0.4-0.2-0.6c0-0.2,0-0.5,0-0.7V8.6z M63.5,4.4c0,0.5-0.1,0.8-0.4,1c-0.2,0.2-0.6,0.3-1,0.3c-0.4,0-0.8-0.1-1-0.3
	c-0.2-0.2-0.4-0.6-0.4-1c0-0.5,0.1-0.8,0.4-1c0.2-0.2,0.6-0.3,1-0.3c0.5,0,0.8,0.1,1,0.3C63.4,3.5,63.5,3.9,63.5,4.4z"/>
<path class="st1" d="M66.2,5c0-0.3,0-0.5,0-0.7c0-0.2,0.1-0.5,0.2-0.6c0.1-0.2,0.2-0.3,0.4-0.4C67,3.1,67.2,3,67.5,3
	c0.3,0,0.5,0.1,0.7,0.2c0.2,0.1,0.3,0.3,0.4,0.4c0.1,0.2,0.2,0.4,0.2,0.6c0,0.2,0,0.5,0,0.7v8.6c0,0.3,0,0.5,0,0.7
	c0,0.2-0.1,0.5-0.2,0.6c-0.1,0.2-0.2,0.3-0.4,0.4c-0.2,0.1-0.4,0.2-0.7,0.2c-0.3,0-0.5-0.1-0.7-0.2c-0.2-0.1-0.3-0.3-0.4-0.4
	c-0.1-0.2-0.2-0.4-0.2-0.6c0-0.2,0-0.5,0-0.7V5z"/>
<path class="st1" d="M72.2,19.2c-0.7,0-1.1-0.1-1.4-0.3c-0.3-0.2-0.4-0.5-0.4-0.9c0-0.2,0-0.3,0.1-0.5c0.1-0.1,0.1-0.2,0.2-0.3
	c0.1-0.1,0.2-0.1,0.3-0.2c0.1,0,0.2,0,0.4,0c0.1,0,0.2,0,0.2,0s0.1,0,0.2,0c0.1,0,0.2-0.1,0.3-0.2c0.1-0.1,0.2-0.3,0.3-0.5
	c0.1-0.2,0.2-0.4,0.3-0.7c0.1-0.2,0.2-0.4,0.3-0.6l-0.1-0.4c-0.2-0.4-0.3-0.9-0.5-1.4c-0.2-0.5-0.4-1-0.6-1.5
	c-0.2-0.5-0.4-1-0.5-1.5c-0.2-0.5-0.3-1-0.5-1.4c-0.1-0.2-0.1-0.4-0.2-0.6c0-0.2-0.1-0.4-0.1-0.5c0-0.2,0-0.3,0.1-0.5
	c0.1-0.1,0.2-0.3,0.3-0.4c0.1-0.1,0.3-0.2,0.4-0.3c0.2-0.1,0.3-0.1,0.5-0.1c0.2,0,0.3,0,0.4,0.1c0.1,0.1,0.3,0.2,0.4,0.3
	c0.1,0.1,0.2,0.3,0.3,0.4C73,7.6,73,7.8,73.1,7.9l1.2,3.8l1.1-3.8c0.1-0.2,0.1-0.3,0.2-0.5c0.1-0.2,0.2-0.3,0.3-0.4
	c0.1-0.1,0.2-0.2,0.4-0.3c0.1-0.1,0.3-0.1,0.5-0.1c0.2,0,0.3,0,0.5,0.1c0.2,0.1,0.3,0.2,0.4,0.3c0.1,0.1,0.2,0.3,0.3,0.4
	C78,7.5,78,7.7,78,7.9c0,0.2,0,0.4-0.1,0.5c0,0.2-0.1,0.3-0.2,0.5l-2.1,5.7c-0.1,0.3-0.3,0.7-0.4,1c-0.1,0.4-0.3,0.7-0.5,1
	c-0.2,0.3-0.4,0.7-0.5,1c-0.2,0.3-0.4,0.6-0.6,0.8c-0.2,0.2-0.4,0.4-0.7,0.5C72.7,19.1,72.4,19.2,72.2,19.2z"/>
<path class="st1" d="M45.9,21.4c0.5,0,1,0.1,1.5,0.2c0.5,0.1,0.9,0.3,1.2,0.6c0.3,0.3,0.6,0.6,0.8,1c0.2,0.4,0.3,0.9,0.3,1.4v5.6
	c0,0.5,0,0.9-0.1,1.2c-0.1,0.4-0.2,0.7-0.4,0.9c-0.2,0.3-0.3,0.5-0.5,0.7c-0.2,0.2-0.4,0.3-0.6,0.4c-0.5,0.3-1.1,0.4-1.7,0.5h-2.9
	c-0.3,0-0.6-0.1-0.8-0.2c-0.2-0.1-0.3-0.3-0.4-0.5c-0.1-0.2-0.1-0.4-0.1-0.7c0-0.2,0-0.5,0-0.8v-8.5c0-0.3,0-0.5,0-0.8
	c0-0.2,0.1-0.5,0.1-0.7c0.1-0.2,0.2-0.3,0.4-0.5c0.2-0.1,0.4-0.2,0.8-0.2H45.9z M44.7,23.5v8.3h1.1c0.3,0,0.5-0.1,0.7-0.2
	c0.1,0,0.2-0.1,0.2-0.2c0.1-0.1,0.2-0.2,0.2-0.3c0.1-0.1,0.1-0.2,0.1-0.4c0-0.1,0.1-0.3,0.1-0.5v-5.3c0-0.2,0-0.4-0.1-0.5
	c0-0.2-0.1-0.3-0.1-0.4c-0.1-0.1-0.1-0.2-0.2-0.3c-0.1-0.1-0.2-0.1-0.2-0.2c-0.2-0.1-0.4-0.2-0.7-0.2H44.7z"/>
<path class="st1" d="M51.8,27c0-0.3,0-0.5,0-0.7c0-0.2,0.1-0.5,0.2-0.6c0.1-0.2,0.2-0.3,0.4-0.5c0.2-0.1,0.4-0.2,0.7-0.2
	c0.3,0,0.5,0.1,0.7,0.2c0.2,0.1,0.3,0.3,0.4,0.5c0.1,0.2,0.2,0.4,0.2,0.6c0,0.2,0,0.5,0,0.7v5c0,0.3,0,0.5,0,0.7
	c0,0.2-0.1,0.5-0.2,0.6c-0.1,0.2-0.2,0.3-0.4,0.4S53.5,34,53.2,34c-0.3,0-0.5-0.1-0.7-0.2s-0.3-0.3-0.4-0.4
	c-0.1-0.2-0.2-0.4-0.2-0.6c0-0.2,0-0.5,0-0.7V27z M54.5,22.8c0,0.5-0.1,0.8-0.4,1c-0.2,0.2-0.6,0.3-1,0.3s-0.8-0.1-1-0.3
	c-0.2-0.2-0.4-0.6-0.4-1c0-0.5,0.1-0.8,0.4-1c0.2-0.2,0.6-0.3,1-0.3c0.5,0,0.8,0.1,1,0.3C54.4,22,54.5,22.3,54.5,22.8z"/>
<path class="st1" d="M64.2,28.9c0,0.1,0,0.2,0,0.3c0,0.1-0.1,0.2-0.1,0.4c-0.1,0.1-0.2,0.2-0.4,0.3C63.5,30,63.3,30,63,30h-3.5v0.9
	c0,0.1,0,0.3,0.1,0.4c0,0.2,0.1,0.3,0.2,0.4c0.1,0.1,0.2,0.2,0.3,0.3c0.1,0.1,0.3,0.1,0.5,0.1c0.2,0,0.4,0,0.5-0.1
	c0.1-0.1,0.2-0.1,0.3-0.2c0.1-0.1,0.1-0.2,0.2-0.3c0.1-0.1,0.1-0.2,0.2-0.3c0.1-0.1,0.2-0.2,0.4-0.2c0.2-0.1,0.4-0.1,0.7-0.1
	c0.1,0,0.3,0,0.4,0c0.1,0,0.3,0.1,0.4,0.1c0.1,0.1,0.2,0.2,0.3,0.3c0.1,0.1,0.1,0.3,0.1,0.4c0,0.4-0.1,0.7-0.4,1
	c-0.2,0.3-0.5,0.5-0.9,0.6c-0.4,0.2-0.8,0.3-1.2,0.3C61.2,34,60.8,34,60.5,34c-0.5,0-1-0.1-1.4-0.2c-0.4-0.1-0.8-0.3-1.2-0.6
	c-0.3-0.3-0.6-0.6-0.8-1c-0.2-0.4-0.3-0.9-0.3-1.6v-2.1c0-0.6,0.1-1.1,0.2-1.4c0.1-0.4,0.3-0.7,0.5-1c0.2-0.3,0.4-0.5,0.7-0.6
	c0.3-0.1,0.5-0.3,0.8-0.3c0.3-0.1,0.5-0.1,0.8-0.1c0.2,0,0.5,0,0.6,0c0.6,0,1.1,0.1,1.5,0.2c0.4,0.1,0.8,0.2,1.1,0.4
	c0.3,0.2,0.5,0.4,0.7,0.6c0.2,0.2,0.3,0.5,0.4,0.7c0.1,0.2,0.1,0.5,0.2,0.7c0,0.2,0,0.5,0,0.7V28.9z M59.5,28.7h2.2
	c0-0.3,0-0.5,0-0.7c0-0.2-0.1-0.4-0.1-0.6c-0.1-0.1-0.2-0.3-0.3-0.3c-0.2-0.1-0.4-0.1-0.7-0.1c-0.2,0-0.4,0-0.6,0.1
	c-0.1,0.1-0.2,0.2-0.3,0.3c-0.1,0.1-0.1,0.2-0.1,0.4c0,0.1,0,0.2,0,0.4V28.7z"/>
<path class="st1" d="M67.2,25v-1.6c0-0.3,0-0.5,0-0.7c0-0.2,0.1-0.5,0.2-0.6c0.1-0.2,0.2-0.3,0.4-0.5c0.2-0.1,0.4-0.2,0.7-0.2
	c0.3,0,0.5,0.1,0.7,0.2c0.2,0.1,0.3,0.3,0.4,0.5c0.1,0.2,0.2,0.4,0.2,0.6c0,0.2,0,0.5,0,0.7V25h0.7c0.2,0,0.3,0,0.5,0
	c0.2,0,0.3,0.1,0.4,0.1c0.1,0.1,0.2,0.2,0.3,0.3c0.1,0.1,0.1,0.3,0.1,0.6c0,0.2,0,0.4-0.1,0.6c-0.1,0.1-0.2,0.3-0.3,0.3
	c-0.1,0.1-0.3,0.1-0.4,0.1c-0.2,0-0.3,0-0.5,0h-0.7v3.1c0,0.1,0,0.2,0,0.4c0,0.1,0,0.3,0.1,0.4c0.1,0.1,0.1,0.2,0.2,0.3
	c0.1,0.1,0.3,0.1,0.4,0.1c0.2,0,0.4,0,0.5,0.1c0.2,0,0.3,0.1,0.4,0.2c0.1,0.1,0.2,0.2,0.2,0.4c0,0.1,0.1,0.3,0.1,0.6
	c0,0.2-0.1,0.4-0.2,0.6c-0.1,0.2-0.2,0.3-0.4,0.4c-0.2,0.1-0.4,0.2-0.6,0.3C70.4,34,70.2,34,69.9,34c-0.4,0-0.8,0-1.1-0.1
	c-0.3-0.1-0.5-0.2-0.7-0.4c-0.2-0.2-0.3-0.4-0.5-0.6c-0.1-0.2-0.2-0.5-0.3-0.8c-0.1-0.3-0.1-0.6-0.1-0.9c0-0.3,0-0.7,0-1.1v-3h-0.5
	c-0.2,0-0.3,0-0.5,0c-0.1,0-0.3-0.1-0.4-0.1c-0.1-0.1-0.2-0.2-0.3-0.3c-0.1-0.1-0.1-0.3-0.1-0.6c0-0.3,0-0.5,0.1-0.6
	c0.1-0.1,0.2-0.3,0.3-0.3c0.1-0.1,0.2-0.1,0.4-0.1c0.2,0,0.3,0,0.5,0H67.2z"/>
</svg>
